<svg id="Capa_1" enable-background="new 0 0 512 512" height="42" viewBox="0 0 512 512" width="42" xmlns="http://www.w3.org/2000/svg"><g><path d="m469.437 172.421h-65.238v-58.01c0-28.347-22.981-51.408-51.229-51.408h-24.8c-4.143 0-7.5 3.358-7.5 7.5s3.357 7.5 7.5 7.5h24.799c19.977 0 36.229 16.333 36.229 36.408v177.031c0 20.076-16.253 36.408-36.229 36.408h-177.77c-1.502 0-2.969.451-4.211 1.293l-87.718 59.516c-1.616 1.098-3.006.452-3.69-.031-.565-.397-1.823-1.541-1.302-3.565l12.315-47.844c.577-2.246.084-4.632-1.336-6.465-1.421-1.833-3.609-2.905-5.928-2.905h-32.1c-19.978 0-36.23-16.333-36.23-36.408v-82.083c0-4.142-3.357-7.5-7.5-7.5s-7.5 3.358-7.5 7.5v82.083c0 28.347 22.981 51.408 51.23 51.408h22.425l-9.904 38.474c-1.92 7.46.904 15.143 7.195 19.57 3.177 2.236 6.836 3.356 10.499 3.356 3.56 0 7.123-1.058 10.247-3.178l85.811-58.223h7.45v14.211c0 23.548 19.095 42.707 42.564 42.707h37.141c4.143 0 7.5-3.358 7.5-7.5s-3.357-7.5-7.5-7.5h-37.141c-15.199 0-27.564-12.429-27.564-27.707v-14.209h153.016c28.248 0 51.229-23.062 51.229-51.408v-104.021h65.238c15.198 0 27.563 12.429 27.563 27.707v141.934c0 15.277-12.365 27.707-27.563 27.707h-25.735c-2.318 0-4.507 1.072-5.928 2.905-1.42 1.832-1.913 4.218-1.336 6.464l9.871 38.368c.062.238.205.795-.458 1.262-.633.444-1.062.152-1.269.012l-70.326-47.717c-1.242-.843-2.709-1.294-4.211-1.294h-75.931c-4.143 0-7.5 3.358-7.5 7.5s3.357 7.5 7.5 7.5h73.626l68.421 46.424c2.759 1.872 5.905 2.806 9.049 2.806 3.237 0 6.472-.991 9.278-2.968 5.554-3.912 8.043-10.692 6.346-17.269l-7.459-28.993h16.063c23.47 0 42.563-19.158 42.563-42.707v-141.935c.001-23.548-19.093-42.706-42.562-42.706z"/><path d="m7.5 187.252c4.143 0 7.5-3.358 7.5-7.5v-65.342c0-20.076 16.253-36.408 36.23-36.408h246.341c4.143 0 7.5-3.358 7.5-7.5s-3.357-7.5-7.5-7.5h-246.341c-28.249 0-51.23 23.062-51.23 51.409v65.342c0 4.142 3.357 7.499 7.5 7.499z"/></g></svg>